<?xml version="1.0" encoding="utf-8"?>
<!-- Generator: Adobe Illustrator 24.3.0, SVG Export Plug-In . SVG Version: 6.00 Build 0)  -->
<svg version="1.1" id="Capa_1" xmlns="http://www.w3.org/2000/svg" xmlns:xlink="http://www.w3.org/1999/xlink" x="0px" y="0px"
	 viewBox="0 0 255.12 226.77" style="enable-background:new 0 0 255.12 226.77;" xml:space="preserve">
<style type="text/css">
	.st0{fill:#FFFFFF;}
</style>
<g>
	<path class="st0" d="M174.49,195.35c-2.46-1.86-4.78-3.98-6.96-6.26c-4.35-4.55-8.75-9.04-13.09-13.59
		c-5.92-6.2-11.98-12.25-17.03-19.25c-3.34-4.64-7.2-8.89-10.82-13.33c-4.29-5.26-7.54-11.19-11.11-16.92
		c-3.08-4.94-5.26-10.36-8.39-15.27c-1.47-2.3-1.81-5.09-2.52-7.95c3.28-2.92,6.61-5.79,9.83-8.77c9.6-8.87,19.17-17.78,28.99-26.42
		c2.76-2.43,5.37-5.02,8.01-7.58c0.96-0.93,1.96-1.49,3.35-1.19c5.66,1.25,11.32,0.38,16.84-0.66c7.6-1.44,14.96-3.79,21.68-7.82
		c2.95-1.77,5.67-3.85,8.34-6.28c1.31,1.97,1.3,4.11,1.53,6.05c1.1,9.42,2.09,18.81,0.73,28.35c-0.65,4.56-0.24,9.28-0.14,13.93
		c0.13,6.21-0.61,12.29-1.68,18.42c-1.49,8.54-2.6,17.15-4.45,25.63c-1,4.6-3.68,8.51-5,12.94c-4.55,15.36-12.32,29.47-17.15,44.71
		C175.29,194.58,175.18,195.09,174.49,195.35z"/>
	<path class="st0" d="M126.71,152.52c-3.46,0.77-6.65,0.46-9.76,0.63c-6.66,0.36-12.68,2.27-18.69,5.09
		c-7.19,3.37-14.02,7.47-21.41,10.4c-0.26,0.1-0.45,0.35-0.76,0.61c0.53,1.75,0.95,3.54,1.6,5.24c1.66,4.4,1.56,8.82,0.91,13.42
		c-0.75,5.29-1.44,10.65-0.45,16.02c0.47,2.57,1.58,4.85,2.71,7.17c1.45,2.98,2.9,6.02,1.65,9.49c-0.73,2.02-2.21,3.07-4.35,3.11
		c-4.56,0.09-9.08-0.43-13.62-0.67c-1.81-0.09-3.67,0.11-5.47,0.41c-7.91,1.3-15.81,0.92-23.69-0.17c-2.01-0.28-3.75-1.29-5.48-2.26
		c-1.41-0.78-1.86-2.35-0.96-3.4c3.5-4.06,6.98-8.46,12.87-8.92c3.79-0.29,7.6-0.77,11.44-0.57c2.45,0.13,4.73-0.72,6.81-1.61
		c0.72-1.99,0.16-3.74-0.26-5.27c-1.68-6.24-3.24-12.54-6.25-18.36c-2.37-4.59-4.52-9.32-4.18-14.68c0.21-3.3,0.53-6.59,0.97-9.87
		c0.51-3.83,3.43-5.72,6.5-7.2c6.21-2.99,12.61-5.6,18.76-8.71c8.98-4.55,16.89-10.9,25.7-15.75c0.18-0.1,0.29-0.32,0.58-0.63
		c-1.9-5.71-2.86-11.69-3.5-17.73c0.9-0.65,1.6-1.15,2.48-1.78c1.9,2.8,3,5.84,4.37,8.73c4.72,9.89,9.38,19.82,15.33,29.06
		c1.46,2.27,4.18,3.47,5.07,6.21C125.82,151.13,126.23,151.66,126.71,152.52z"/>
	<path class="st0" d="M125.02,46.97c-0.01-6.07-1.44-8.28-5.38-8.72c-2.66-0.29-5.7,2.36-6.26,5.47c-0.67,3.74,1.22,6.05,6.54,7.61
		c-2.75,2.62-5.33,5.16-7.98,7.61c-2.7,2.49-5.53,4.84-8.17,7.39c-1.2,1.16-2.54,1.89-4.09,1.84c-2.34-0.08-4.61,0.98-6.99,0.18
		c-1.05-0.35-1.88,0.63-2.9,1.25c-0.14,2.77,1.7,5.26,1.49,8.15c-3.1,2.45-5.48,5.72-9.31,8.14c-5.67-3.45-12.03-0.41-18.75-1.43
		c-1.34,9.22,1.69,17.59,1.79,26.14c0.73,0.71,1.9,0.34,2.33,1.51c-2.87,2.87-0.49,5.79,0.22,8.82c1.04,4.49,4.65,3.16,7.4,3
		c1.62,5.83-0.16,12.06-6.06,12.65c-0.77,0.08-1.17,0.82-1.73,1.28c-4.43,3.59-8.01,2.41-11.22-2.16
		c-3.36-4.78-3.04-10.31-3.46-15.68c-0.52-6.62-1.74-13.12-2.83-19.65c-1.31-7.78-2.61-15.54,0.53-23.26
		c0.75-1.84,1.73-3.22,3.52-3.98c4.41-1.87,8.88-3.62,13.58-4.52c2.42-0.46,3.36-2.51,4.94-3.83c4.95-4.13,10.08-6.42,16.73-2.24
		c-1.75-3.67-1.94-7.04-2.29-10.38c-0.34-3.27-0.8-6.54-0.58-10.07c-2.52,0.69-3.5,3.15-5.75,3.65c-0.75-0.87-0.19-1.83,0.13-2.46
		c1.39-2.76,2.03-5.88,3.86-8.41c0.96-1.33,0.92-2.55,0.15-3.9c-1.41-2.45-2.32-5.08-2.93-7.83c-0.16-0.7-0.56-1.41,0.17-2.2
		c2.57,0.77,5.25,1.37,8.39,1.58c-0.34-5.02-3.21-9.33-2.91-14.58c3.73,1.2,7.29,2.28,10.8,3.5c3.83,1.33,7.69,2.37,11.77,2.7
		c5.06,0.42,9.03,3.23,12.6,6.64c0.54,0.52,1,1.05,1.89,1.13c0.68-1.8-0.13-3.59-0.18-5.45c3.23,1.55,4.09,4.79,2.34,8.71
		c2.52,3.32,4.83,6.85,6.07,11.02c0.66,2.24,0.55,3.82-1.61,5.31C128.81,42.96,127.13,44.97,125.02,46.97z M104.14,46.48
		c-0.01-3.73-2.38-6.13-6.03-6.1c-3.5,0.03-5.79,2.77-5.78,6.91c0.01,3.59,2.18,6.22,5.15,6.25
		C101.16,53.57,104.15,50.41,104.14,46.48z M107.68,25.04c0.72,4.01,3.3,5.85,6.02,7.51c2.77,1.7,5.76,2.48,8.86,1.77
		c0.6-0.7,0.95-1.25,0.86-2.26c-1.86-2.45-5.18-1.42-7.68-2.67C113.2,28.12,111.25,25.79,107.68,25.04z M100.98,26.76
		c-0.35,0.13-0.62,0.15-0.74,0.29c-2.25,2.79-4.65,5.4-7.58,7.5c-1.13,0.81-0.9,1.88,0.01,2.79
		C96.55,37.83,102.28,30.66,100.98,26.76z"/>
	<path class="st0" d="M94.93,123.58c-1.47,2.84-3.27,5.4-6.24,6.85c-1.97,0.96-3.61,0.98-5.23-1.02c-2.08-2.57-4.56-4.79-6.23-7.71
		c-0.37-0.64-1.21-1.02-1.69-1.41c-1.49-0.17-2.18,1.23-3.53,1.24c-2.48-1.87-4.28-4.12-3.49-7.58c3.26-2.64,3.38-2.85,1.96-6.69
		c-1.7-4.61-2.54-9.36-2.56-14.26c-0.02-4.46,2.25-6.68,6.79-6.66c0.64,0,1.32-0.19,1.99,0.37c-3.81,3.82-3.62,8.15-1.63,12.73
		c1.17,2.7,3.49,3.12,5.52,0.94c1.69-1.82,2.32-4.14,2.65-6.44c0.27-1.84,1.23-2.98,2.55-3.92c5.99-4.28,11.18-9.51,16.76-14.27
		c5.3-4.53,10.62-9.05,15.8-13.71c3.55-3.19,6.75-6.75,10.38-9.87c4.29-3.68,8.6-7.34,12.73-11.19c3.01-2.8,5.68-5.96,8.63-8.84
		c4.3-4.2,8.88-8.13,13.03-12.47c3.35-3.51,7.47-6.18,10.53-9.98c0.27-0.33,0.66-0.64,1.06-0.77c5.64-1.81,11.29-3.6,17.19-5.47
		c0,2.42-0.73,4.28-1.2,6.17c-0.76,3.07-1.71,6.09-2.47,9.16c-0.39,1.6-1.2,2.85-2.46,3.81c-4.22,3.21-7.85,7.08-11.81,10.58
		c-7.81,6.91-15.49,13.97-23.19,21.01c-5.69,5.2-11.31,10.48-17.01,15.69c-6.23,5.69-12.4,11.46-18.8,16.97
		c-7.52,6.48-14.24,13.74-21.17,20.82c-0.56,0.57-1.16,1.1-1.63,1.55c-1.12,0.17-1.92-0.27-2.77-0.47c-3.21-0.75-5.5,0.81-7.58,3
		c-1.76,1.84-1.43,3.78-0.67,5.93c2.23,6.32,7,8.4,13.75,5.87L94.93,123.58z"/>
	<path class="st0" d="M236.96,219.03c-3.53,2.77-7.34,4.57-11.62,5.58c-5.24,1.23-9.87-0.42-14.42-2.65
		c-0.78-0.38-1.55-0.43-2.35-0.44c-3.39-0.07-6.73,0.45-10.09,0.73c-4.35,0.36-8.6,0.01-13.26-1.76
		c3.95-10.19-0.29-19.44-2.77-28.51c6.16-15.8,13.22-30.83,16.81-46.98c1.54-0.03,2.13,0.65,2.96,1.34
		c0.38,6.03,0.45,12.18-0.03,18.33c-0.43,5.52-0.36,11.02-0.02,16.55c0.44,7.05,3.02,13.63,4.22,20.51
		c0.17,0.98,0.59,1.63,1.53,1.95c4.38,1.49,8.76,3.02,13.45,3.11c3.22,0.06,6.06,0.92,8.46,3.12
		C232.58,212.43,235.47,214.85,236.96,219.03z"/>
	<path class="st0" d="M50.33,130.98c2.38,3.57,4.08,7.64,8.28,9.86c-3.18,1.9-5.58,5-9.51,2.95c-2-1.04-3.77-2.42-3.72-5.02
		C45.44,135.39,47.04,132.94,50.33,130.98z"/>
	<path class="st0" d="M94.81,75.22c-1.79-1.72-1.86-1.95-1.22-4.02c1.77-0.88,3.47-0.21,5.38,0.4
		C97.84,73.21,96.73,74.58,94.81,75.22z"/>
	<path class="st0" d="M94.9,123.56c0.04-0.12,0.09-0.25,0.14-0.38c0.28,0.23-0.01,0.29-0.1,0.41
		C94.93,123.58,94.9,123.56,94.9,123.56z"/>
</g>
</svg>
